<?xml version="1.0" encoding="utf-8"?>
<!-- Generator: Adobe Illustrator 22.0.1, SVG Export Plug-In . SVG Version: 6.00 Build 0)  -->
<svg version="1.1" id="Layer_1" xmlns="http://www.w3.org/2000/svg" xmlns:xlink="http://www.w3.org/1999/xlink" x="0px" y="0px"
	 viewBox="0 0 136 87.3" style="enable-background:new 0 0 136 87.3;" xml:space="preserve">
<style type="text/css">
	.st0{fill:#FFFFFF;}
</style>
<g id="Grupo_31" transform="translate(-262.99 -609.073)">
	<g id="Grupo_29" transform="translate(262.99 609.073)">
		<g id="Grupo_27" transform="translate(5.591)">
			<g id="Grupo_25" transform="translate(91.366 2.948)">
				<rect id="Rectángulo_4" x="2.7" y="22.9" class="st0" width="28" height="1.5"/>
				<g id="Grupo_24">
					<path id="Trazado_68" class="st0" d="M17.6,9.2c0.1,2.4-0.8,4.8-2.6,6.5c-1.7,1.7-4.1,2.6-6.6,2.5H0.9L0,17.4l0.9-0.9h1.1V1.8
						H0.9L0,0.9L0.9,0l7.6,0c4.9-0.2,9,3.6,9.2,8.5C17.6,8.7,17.6,9,17.6,9.2L17.6,9.2z M13.8,9.2c0-1.7-0.4-3.5-1.2-5
						c-0.7-1.6-2.3-2.6-4.1-2.6H7.1c-0.6,0-1.1,0-1.4,0v15.1h2.8c1.7,0,3.3-1,4-2.5C13.4,12.6,13.8,10.9,13.8,9.2L13.8,9.2z"/>
					<path id="Trazado_69" class="st0" d="M33.5,15.6l-1.1,2.7H19.6l-0.9-0.9l0.9-0.9h1.1V9.6h-0.9l-0.7-0.8l0.7-0.7h0.9V1.8h-1.1
						l-0.9-0.9L19.6,0h12.8l1.1,2.7l-1.2,1.2L30,1.6h-5.5v6.5h2.6l1.3-1.4l0.9,0.9v2.7l-0.9,0.9L27,9.6h-2.5v7.1h5.6l2.2-2.3
						L33.5,15.6z"/>
				</g>
			</g>
			<g id="Grupo_26">
				<path id="Trazado_70" class="st0" d="M30.7,14.8c0.1,4.1-1.5,8-4.4,10.7c-6.3,5.4-15.6,5.4-21.9,0c-5.9-6-5.9-15.5,0-21.5
					c6.3-5.4,15.6-5.4,21.9,0C29.2,6.8,30.8,10.7,30.7,14.8z M21.4,14.8c0-2.1-0.4-4.1-1.3-5.9c-1.1-2.1-2.7-3.2-4.8-3.2
					c-2.1,0-3.9,1.3-4.7,3.2c-0.9,1.8-1.4,3.9-1.4,5.9c0,2.1,0.4,4.1,1.4,6c1.1,2.2,2.7,3.3,4.7,3.3s3.6-1.1,4.7-3.2
					C21,18.9,21.4,16.8,21.4,14.8L21.4,14.8z"/>
				<path id="Trazado_71" class="st0" d="M55.5,0.7l-4.4,5.6V20c0,3.2-1,5.6-3,7.2c-1.8,1.5-4.4,2.2-7.6,2.2
					c-4.9,0-8.4-1.8-10.3-5.4l3.7-6.4l4.9,2.9c0,1.5,0,2.3,0,2.4c0.1,0.8,0.8,1.3,1.6,1.2c0.9,0,1.4-1,1.4-3V6.3l-4.3-5.6H55.5
					L55.5,0.7z"/>
				<path id="Trazado_72" class="st0" d="M86.5,14.8c0.1,4.1-1.5,8-4.4,10.7c-6.3,5.4-15.6,5.4-21.9,0c-5.9-6-5.9-15.5,0-21.5
					c6.3-5.4,15.6-5.4,21.9,0C85,6.8,86.6,10.7,86.5,14.8z M77.1,14.8c0-2.1-0.4-4.1-1.3-5.9c-1.1-2.1-2.7-3.2-4.8-3.2
					c-2.1,0-3.9,1.3-4.7,3.2c-0.9,1.8-1.4,3.9-1.4,5.9c0,2.1,0.4,4.1,1.4,6c1.1,2.2,2.7,3.3,4.7,3.3s3.6-1.1,4.7-3.2
					C76.7,18.9,77.2,16.8,77.1,14.8z"/>
			</g>
		</g>
		<g id="Grupo_28" transform="translate(0 36.696)">
			<path id="Trazado_73" class="st0" d="M27.2,8.8l-8.8-2.5v17l3.7,5.6H5.2L9,23.3v-17L0,8.8l2.2-8h22.4L27.2,8.8z"/>
			<path id="Trazado_74" class="st0" d="M45,0.8l-3.8,5.5v17l3.7,5.5H28.1l3.8-5.5v-17l-3.8-5.5L45,0.8L45,0.8z"/>
			<path id="Trazado_75" class="st0" d="M77.9,14.9l-3.7,5.5v11.7L69,27.8c-2.3,1.3-4.9,1.9-7.5,1.9c-4,0.1-7.8-1.5-10.7-4.3
				c-2.9-2.8-4.4-6.6-4.4-10.6c-0.1-4,1.5-7.9,4.4-10.6c2.9-2.8,6.8-4.3,10.9-4.2c4.1-0.2,8.1,1.5,10.8,4.7V8h-7.3
				c-0.6-1.5-2-2.4-3.6-2.4c-2,0-3.6,1.1-4.6,3.2c-0.9,1.9-1.3,3.9-1.2,5.9c0,2.1,0.4,4.1,1.4,5.9c1.2,2.2,2.7,3.2,4.8,3.2
				c1.3,0.1,2.6-0.3,3.6-1.1v-1.7c0-0.5-0.2-0.9-0.6-1.2c-0.4-0.3-0.8-0.5-1.3-0.6c-0.7-0.3-1.4-0.6-2.1-1l3-3.6L77.9,14.9
				L77.9,14.9z"/>
			<path id="Trazado_76" class="st0" d="M108.3,26l-3.1,2.8h-8.3l-6.7-14.5v9l3.3,5.5H77.1l3.7-5.5v-17l-3.7-5.5h15
				c2.7-0.1,5.4,0.4,7.9,1.6c2.5,1.1,4.1,3.6,4.1,6.3c0,3.4-2.5,5.9-7.5,7.5l4.6,1.2l2.7,5.9L108.3,26z M94.7,8.8
				c0-1.8-1.5-2.7-4.5-2.7v7c1-0.4,2.1-0.9,3-1.5C94.1,11,94.7,10,94.7,8.8L94.7,8.8z"/>
			<path id="Trazado_77" class="st0" d="M136,28.8h-27l3.8-5.6v-5.9l-3.4-2.6l3.4-2.6V6.3L109,0.8h25.9l-3.7,9.2l-4-3.6h-5.1v5.8
				h2.3l3.1-2.7l6,5.4l-6.1,5.9l-3-3.3h-2.3v5.9h6.2l4-3.6L136,28.8z"/>
		</g>
	</g>
	<g id="Grupo_30" transform="translate(263.553 684.916)">
		<path id="Trazado_78" class="st0" d="M6.5,11.2V3.3L6.1,5.6l-1.2,5.6H3.4L2.2,5.6L1.8,3.3v7.9H0V0.2h2.7l1.1,5.6l0.3,2l0.4-2
			l1.1-5.6h2.7v10.9H6.5z"/>
		<path id="Trazado_79" class="st0" d="M11.9,11.2V0.2h5.2V2h-3.2v2.7h2.2v1.6h-2.2v3h3.2v1.8L11.9,11.2z"/>
		<path id="Trazado_80" class="st0" d="M22.3,9.4h3.4v1.8h-5.9v-0.6L23.3,2H20V0.2h5.8v0.6L22.3,9.4z"/>
		<path id="Trazado_81" class="st0" d="M31.8,11.4c-1.6,0.1-3-1.1-3.1-2.7c0-0.1,0-0.2,0-0.3V3c0-1.6,1.2-3,2.9-3c0.1,0,0.2,0,0.3,0
			c1.5-0.1,2.8,0.9,3,2.4c0,0.1,0,0.3,0,0.4v1.3h-1.8V2.9c0-0.6-0.5-1.1-1.1-1.1c-0.6,0-1,0.5-1.1,1v5.8c0,0.6,0.6,1.1,1.2,1
			c0.6,0,1-0.5,1-1.1V7.2h1.8v1.3c0.1,1.5-1,2.8-2.5,2.9C32.1,11.5,31.9,11.5,31.8,11.4z"/>
		<path id="Trazado_82" class="st0" d="M41.8,11.2L41.4,9h-1.9l-0.4,2.2h-1.9l2.2-10.9h2.3l2.2,10.9H41.8z M40.5,3.2l-0.7,4.2h1.4
			L40.5,3.2z"/>
		<path id="Trazado_83" class="st0" d="M46.7,11.2V0.2h2v9.1h3.1v1.8L46.7,11.2z"/>
		<path id="Trazado_84" class="st0" d="M63.2,11.2L62.8,9h-1.9l-0.4,2.2h-1.9l2.2-10.9h2.3l2.2,10.9H63.2z M61.9,3.2l-0.7,4.2h1.4
			L61.9,3.2z"/>
		<path id="Trazado_85" class="st0" d="M73.1,11.3c-0.8,0-1.1-0.7-1.1-1.6V7.6c0.1-0.5-0.3-0.9-0.7-0.9c0,0-0.1,0-0.1,0h-1.1v4.5h-2
			V0.2h3.4c1.2-0.1,2.4,0.8,2.5,2c0,0.1,0,0.3,0,0.4v1.5C74,5,73.5,5.7,72.7,5.9C73.5,6.1,74,6.7,74,7.5v2c0,0.4,0.1,0.8,0.4,1.1
			v0.6L73.1,11.3z M72,2.7c0-0.5-0.2-0.8-0.7-0.8h-1.1v3.2h1c0.5,0,0.8-0.3,0.8-0.9V2.7z"/>
		<path id="Trazado_86" class="st0" d="M80.9,2.1v9.1h-2.1V2.1h-2V0.2h6.1v1.8H80.9z"/>
		<path id="Trazado_87" class="st0" d="M85.8,11.2V0.2H91V2h-3.2v2.7H90v1.6h-2.2v3H91v1.8L85.8,11.2z"/>
		<path id="Trazado_88" class="st0" d="M96.8,11.4c-1.5,0.2-2.9-0.9-3-2.4c0-0.1,0-0.3,0-0.4V7.9h1.9v0.6c0,0.8,0.4,1.2,1.1,1.2
			c0.5,0.1,1-0.3,1.1-0.9c0-0.1,0-0.1,0-0.2c0-0.9-0.6-1.5-1.6-2.3c-1.1-0.8-2.3-1.9-2.3-3.4C93.8,1.4,95,0.1,96.5,0
			c0.1,0,0.2,0,0.3,0c1.5-0.1,2.8,1.1,2.9,2.6c0,0.1,0,0.2,0,0.3v0.7h-1.9V2.9c0-0.7-0.3-1.2-1-1.2c-0.5,0-0.9,0.3-1,0.9
			c0,0,0,0.1,0,0.1c0,0.9,0.5,1.4,1.8,2.3c1.3,1,2.2,2,2.2,3.4c0.1,1.6-1.2,2.9-2.8,3C97,11.4,96.9,11.4,96.8,11.4z"/>
		<path id="Trazado_89" class="st0" d="M106.9,11.2L106.5,9h-1.9l-0.4,2.2h-1.9l2.2-10.9h2.3l2.2,10.9H106.9z M105.6,3.2l-0.7,4.2
			h1.4L105.6,3.2z"/>
		<path id="Trazado_90" class="st0" d="M116.5,11.2l-2.1-4.7l-0.8-1.7v6.4h-1.9V0.2h1.8l2,4.7l0.7,1.7V0.2h1.8v10.9H116.5z"/>
		<path id="Trazado_91" class="st0" d="M125.5,11.2L125.1,9h-1.9l-0.4,2.2h-1.9l2.2-10.9h2.3l2.2,10.9H125.5z M124.2,3.2l-0.7,4.2
			h1.4L124.2,3.2z"/>
		<path id="Trazado_92" class="st0" d="M130.3,11.2V0.2h2v9.1h3.1v1.8L130.3,11.2z"/>
	</g>
</g>
</svg>
