<svg xmlns="http://www.w3.org/2000/svg" width="136" height="87.279" viewBox="0 0 136 87.279">
  <g id="Grupo_31" data-name="Grupo 31" transform="translate(-262.99 -609.073)">
    <g id="Grupo_29" data-name="Grupo 29" transform="translate(262.99 609.073)">
      <g id="Grupo_27" data-name="Grupo 27" transform="translate(5.591)">
        <g id="Grupo_25" data-name="Grupo 25" transform="translate(91.366 2.948)">
          <rect id="Rectángulo_4" data-name="Rectángulo 4" width="28.008" height="1.525" transform="translate(2.722 22.888)" fill="#030504"/>
          <g id="Grupo_24" data-name="Grupo 24">
            <path id="Trazado_68" data-name="Trazado 68" d="M514.784,625.378a8.784,8.784,0,0,1-2.56,6.525,8.917,8.917,0,0,1-6.551,2.535h-7.629l-.853-.878.853-.853h1.079V617.95H498.07l-.878-.878.853-.853,7.554-.025a8.847,8.847,0,0,1,9.185,9.185Zm-3.815.026a10.137,10.137,0,0,0-1.2-5.02,4.5,4.5,0,0,0-4.092-2.61h-1.38q-.955.025-1.355.026v15.058h2.81a4.445,4.445,0,0,0,4.041-2.534A9.831,9.831,0,0,0,510.969,625.4Z" transform="translate(-497.192 -616.193)" fill="#030504"/>
            <path id="Trazado_69" data-name="Trazado 69" d="M557.181,631.813l-1.079,2.66H543.328l-.853-.878.853-.853h1.1v-6.9h-.878l-.729-.791.729-.74h.878v-6.324h-1.079l-.878-.878.853-.853h12.8l1.054,2.66-1.2,1.2-2.233-2.283h-5.521v6.474h2.61l1.33-1.38.853.879v2.66l-.853.853-1.432-1.481h-2.508v7.052h5.6l2.159-2.284Z" transform="translate(-523.728 -616.228)" fill="#030504"/>
          </g>
        </g>
        <g id="Grupo_26" data-name="Grupo 26">
          <path id="Trazado_70" data-name="Trazado 70" d="M307.2,623.865a14.07,14.07,0,0,1-4.443,10.736,16.877,16.877,0,0,1-21.859,0,15.292,15.292,0,0,1,0-21.472,16.806,16.806,0,0,1,21.9,0A14.131,14.131,0,0,1,307.2,623.865Zm-9.308-.039a12.966,12.966,0,0,0-1.313-5.947q-1.7-3.2-4.751-3.205a5.071,5.071,0,0,0-4.672,3.166,12.419,12.419,0,0,0-1.352,5.91,12.733,12.733,0,0,0,1.352,5.986q1.659,3.282,4.711,3.282t4.712-3.244A12.961,12.961,0,0,0,297.89,623.826Z" transform="translate(-276.495 -609.073)" fill="#030504"/>
          <path id="Trazado_71" data-name="Trazado 71" d="M374.673,610.846l-4.36,5.562v13.748q0,4.751-3.013,7.183-2.742,2.241-7.607,2.24-7.377,0-10.312-5.445l3.7-6.444,4.876,2.93q.039,2.318.039,2.395a1.471,1.471,0,0,0,1.621,1.235q1.353,0,1.353-2.973V616.408l-4.322-5.562h18.028Z" transform="translate(-319.207 -610.112)" fill="#030504"/>
          <path id="Trazado_72" data-name="Trazado 72" d="M441.863,623.865a14.07,14.07,0,0,1-4.443,10.736,16.877,16.877,0,0,1-21.859,0,15.292,15.292,0,0,1,0-21.472,16.806,16.806,0,0,1,21.9,0A14.131,14.131,0,0,1,441.863,623.865Zm-9.308-.039a12.972,12.972,0,0,0-1.312-5.947q-1.7-3.2-4.751-3.205a5.071,5.071,0,0,0-4.672,3.166,12.425,12.425,0,0,0-1.352,5.91,12.739,12.739,0,0,0,1.352,5.986q1.659,3.282,4.711,3.282t4.712-3.244A12.967,12.967,0,0,0,432.555,623.826Z" transform="translate(-355.41 -609.073)" fill="#030504"/>
        </g>
      </g>
      <g id="Grupo_28" data-name="Grupo 28" transform="translate(0 36.696)">
        <path id="Trazado_73" data-name="Trazado 73" d="M290.14,707.606l-8.844-2.5v16.954l3.746,5.562H268.2l3.785-5.562V705.1l-9,2.5,2.24-8.024h22.439Z" transform="translate(-262.99 -698.809)" fill="#030504"/>
        <path id="Trazado_74" data-name="Trazado 74" d="M347.791,699.582l-3.784,5.522V722.1l3.746,5.523H330.914L334.7,722.1V705.1l-3.785-5.522h16.877Z" transform="translate(-302.794 -698.809)" fill="#030504"/>
        <path id="Trazado_75" data-name="Trazado 75" d="M406.587,712.583l-3.746,5.523v11.725l-5.137-4.272a15.046,15.046,0,0,1-7.531,1.855,14.6,14.6,0,0,1-10.658-4.306,14.264,14.264,0,0,1-4.365-10.562,14.114,14.114,0,0,1,4.365-10.64,15.055,15.055,0,0,1,10.851-4.191,13.532,13.532,0,0,1,10.814,4.673v3.36H393.92a3.694,3.694,0,0,0-3.592-2.356q-3.05,0-4.635,3.205a13.332,13.332,0,0,0-1.235,5.949,12.508,12.508,0,0,0,1.391,5.947q1.737,3.243,4.75,3.244a5.49,5.49,0,0,0,3.592-1.082v-1.7a1.4,1.4,0,0,0-.58-1.2,5.183,5.183,0,0,0-1.256-.617,22.478,22.478,0,0,1-2.1-.967l3.012-3.591h13.324Z" transform="translate(-328.718 -697.714)" fill="#030504"/>
        <path id="Trazado_76" data-name="Trazado 76" d="M480.389,724.839l-3.127,2.781H468.92l-6.681-14.483v8.96l3.282,5.523H449.146l3.746-5.523V705.1l-3.746-5.522h15.023a17.241,17.241,0,0,1,7.879,1.582A6.7,6.7,0,0,1,476.1,707.5q0,5.138-7.531,7.493l4.557,1.2,2.742,5.909Zm-13.633-17.224q0-2.742-4.517-2.7v7.027a20.05,20.05,0,0,0,3.012-1.467A3.356,3.356,0,0,0,466.757,707.615Z" transform="translate(-372.08 -698.809)" fill="#030504"/>
        <path id="Trazado_77" data-name="Trazado 77" d="M553.234,727.62H526.2l3.785-5.562v-5.908l-3.36-2.626,3.36-2.626v-5.755l-3.785-5.561h25.915l-3.708,9.152-4.016-3.591h-5.1V710.9h2.317l3.051-2.7,6,5.408-6.076,5.869-3.013-3.321h-2.278v5.908h6.178l3.978-3.553Z" transform="translate(-417.234 -698.809)" fill="#030504"/>
      </g>
    </g>
    <g id="Grupo_30" data-name="Grupo 30" transform="translate(263.553 684.916)">
      <path id="Trazado_78" data-name="Trazado 78" d="M270.857,803.812v-7.937l-.444,2.383-1.167,5.554H267.7l-1.1-5.554-.427-2.383v7.937H264.35V792.868h2.744l1.133,5.554.345,2.021.362-2.021,1.117-5.554h2.727v10.944Z" transform="translate(-264.35 -792.622)" fill="#030504"/>
      <path id="Trazado_79" data-name="Trazado 79" d="M293.047,803.812V792.868h5.225v1.759h-3.188v2.711h2.2v1.61h-2.2v3.04h3.188v1.824Z" transform="translate(-281.167 -792.622)" fill="#030504"/>
      <path id="Trazado_80" data-name="Trazado 80" d="M314.619,802h3.369v1.807h-5.85v-.641l3.55-8.544h-3.336v-1.759h5.767v.641Z" transform="translate(-292.354 -792.622)" fill="#030504"/>
      <path id="Trazado_81" data-name="Trazado 81" d="M336.651,803.709A2.939,2.939,0,0,1,333.5,800.7V795.28a2.939,2.939,0,0,1,3.155-3.007,2.7,2.7,0,0,1,2.958,2.859v1.331h-1.824v-1.315a1.11,1.11,0,0,0-2.218-.033v5.751a1.11,1.11,0,0,0,2.218-.033v-1.314h1.824v1.331A2.7,2.7,0,0,1,336.651,803.709Z" transform="translate(-304.87 -792.273)" fill="#030504"/>
      <path id="Trazado_82" data-name="Trazado 82" d="M358.781,803.812l-.362-2.153h-1.939l-.394,2.153H354.18l2.2-10.944h2.284l2.185,10.944Zm-1.282-7.986-.739,4.223h1.4Z" transform="translate(-316.991 -792.622)" fill="#030504"/>
      <path id="Trazado_83" data-name="Trazado 83" d="M377.082,803.812V792.868h2.038V802h3.056v1.807Z" transform="translate(-330.412 -792.622)" fill="#030504"/>
      <path id="Trazado_84" data-name="Trazado 84" d="M410.5,803.812l-.362-2.153H408.2l-.394,2.153H405.9l2.2-10.944h2.284l2.185,10.944Zm-1.282-7.986-.739,4.223h1.4Z" transform="translate(-347.299 -792.622)" fill="#030504"/>
      <path id="Trazado_85" data-name="Trazado 85" d="M433.861,803.877c-.805,0-1.117-.657-1.117-1.61v-2.054a.829.829,0,0,0-.838-.937h-1.068v4.535H428.8V792.868h3.369a2.259,2.259,0,0,1,2.5,2.383V796.8a1.624,1.624,0,0,1-1.232,1.692,1.678,1.678,0,0,1,1.266,1.66v2a1.535,1.535,0,0,0,.394,1.117v.608Zm-1.183-8.544c0-.493-.214-.789-.723-.789h-1.117v3.221h1.035c.526,0,.805-.279.805-.871Z" transform="translate(-360.72 -792.622)" fill="#030504"/>
      <path id="Trazado_86" data-name="Trazado 86" d="M453.912,794.676v9.136h-2.054v-9.136h-2.021v-1.808h6.08v1.808Z" transform="translate(-373.048 -792.622)" fill="#030504"/>
      <path id="Trazado_87" data-name="Trazado 87" d="M471.547,803.812V792.868h5.225v1.759h-3.188v2.711h2.2v1.61h-2.2v3.04h3.188v1.824Z" transform="translate(-385.77 -792.622)" fill="#030504"/>
      <path id="Trazado_88" data-name="Trazado 88" d="M493.959,803.733a2.744,2.744,0,0,1-3.04-2.826v-.756h1.873v.641c0,.8.378,1.249,1.117,1.249a.991.991,0,0,0,1.085-1.1c0-.871-.558-1.463-1.643-2.268-1.117-.805-2.333-1.889-2.333-3.418a2.8,2.8,0,0,1,2.991-2.941,2.718,2.718,0,0,1,2.876,2.81v.706h-1.857v-.657c0-.674-.345-1.167-1.035-1.167a.923.923,0,0,0-.986.986c0,.92.542,1.4,1.758,2.283,1.3.97,2.218,1.956,2.218,3.435A2.89,2.89,0,0,1,493.959,803.733Z" transform="translate(-397.122 -792.296)" fill="#030504"/>
      <path id="Trazado_89" data-name="Trazado 89" d="M515.966,803.812l-.361-2.153h-1.939l-.394,2.153h-1.906l2.2-10.944h2.284l2.185,10.944Zm-1.282-7.986-.739,4.223h1.4Z" transform="translate(-409.104 -792.622)" fill="#030504"/>
      <path id="Trazado_90" data-name="Trazado 90" d="M538.992,803.812l-2.12-4.667L536.1,797.4v6.409h-1.873V792.868h1.758l2.021,4.749.723,1.742v-6.491h1.84v10.944Z" transform="translate(-422.501 -792.622)" fill="#030504"/>
      <path id="Trazado_91" data-name="Trazado 91" d="M560.9,803.812l-.361-2.153H558.6l-.394,2.153H556.3l2.2-10.944h2.284l2.185,10.944Zm-1.282-7.986-.739,4.223h1.4Z" transform="translate(-435.434 -792.622)" fill="#030504"/>
      <path id="Trazado_92" data-name="Trazado 92" d="M579.2,803.812V792.868h2.038V802h3.056v1.807Z" transform="translate(-448.854 -792.622)" fill="#030504"/>
    </g>
  </g>
</svg>
