<?xml version="1.0" encoding="utf-8"?>
<!-- Generator: Adobe Illustrator 25.0.0, SVG Export Plug-In . SVG Version: 6.00 Build 0)  -->
<svg version="1.1" id="Layer_1" xmlns="http://www.w3.org/2000/svg" xmlns:xlink="http://www.w3.org/1999/xlink" x="0px" y="0px"
	 viewBox="0 0 711 180.1" style="enable-background:new 0 0 711 180.1;" xml:space="preserve">
<style type="text/css">
	.st0{fill:#030504;}
</style>
<g id="Grupo_785" transform="translate(-269.82 -1417.122)">
	<path id="Trazado_2348" class="st0" d="M292.5,1479.8h2.4c0.2,0.6,0.5,1.4,0.8,2.3c0.3,0.9,0.7,1.9,1,2.9c0.3,1,0.6,2.1,0.8,3.1
		c0.2,1,0.4,2,0.5,2.9c-1.9,1.1-3.9,2-6.1,2.6c-2.8,0.7-5.7,1.1-8.6,1c-1.9,0-3.8-0.3-5.6-0.9c-1.6-0.5-3-1.3-4.3-2.4
		c-1.2-1-2.1-2.2-2.7-3.6c-0.6-1.4-1-3-0.9-4.5c-0.1-1.9,0.4-3.7,1.2-5.4c0.8-1.5,1.8-2.8,2.9-4c1.2-1.2,2.5-2.2,3.8-3.1
		c1.4-0.9,2.6-2,3.8-3.1c1.2-1.1,2.2-2.3,3-3.7c0.8-1.5,1.2-3.2,1.2-5h2.3c0.6,1.8,0.9,3.7,0.7,5.6c-0.1,1.5-0.5,2.9-1.2,4.2
		c-0.6,1.2-1.3,2.4-2.2,3.4c-0.9,1.1-1.7,2.1-2.5,3.2c-0.8,1.1-1.5,2.2-2.1,3.4c-0.6,1.3-0.9,2.8-0.9,4.2c0,0.9,0.1,1.8,0.3,2.7
		c0.2,0.8,0.5,1.6,1,2.2c0.5,0.7,1.1,1.2,1.9,1.6c0.9,0.4,1.9,0.6,2.8,0.6c2.1,0,3.5-0.3,4.3-1L292.5,1479.8z M292,1449.7
		c0.1,1.5-0.5,3-1.6,4.1c-1.2,1-2.7,1.6-4.3,1.5c-1.6,0.1-3.1-0.5-4.3-1.5c-1.1-1.1-1.7-2.6-1.7-4.1c-0.1-1.5,0.5-3,1.7-4
		c1.2-1,2.7-1.6,4.3-1.5c1.6-0.1,3.1,0.5,4.3,1.5C291.5,1446.7,292.1,1448.2,292,1449.7z M319.7,1475.3c1.3,0.2,2.5,0.5,3.7,0.8
		c1.1,0.3,2.3,0.7,3.3,1.2v2.7h-23.3v-2.7c0.9-0.5,1.8-0.9,2.8-1.3c1-0.3,1.9-0.6,2.9-0.8v-39.6c-1-0.2-2.1-0.4-3.1-0.8
		c-0.9-0.3-1.8-0.7-2.7-1.2v-2.7h8.8c1.9,0,4-0.1,6.4-0.3c2.4-0.2,4.6-0.3,6.6-0.3c2.4,0,4.9,0.2,7.2,0.7c2.2,0.4,4.4,1.3,6.3,2.5
		c1.8,1.2,3.4,2.8,4.4,4.7c1.2,2.2,1.8,4.7,1.7,7.2c0.2,4.8-2.1,9.3-6,12.1c-1.9,1.3-4,2.3-6.3,2.9c-2.4,0.6-4.9,1-7.4,0.9h-1.1
		c-0.5,0-1.1,0-1.6,0l-1.7-0.1c-0.4,0-0.8,0-1.2-0.1V1475.3z M323.4,1435c-0.7,0-1.5,0-2.2,0.1c-0.5,0.1-1.1,0.2-1.6,0.3v21.3
		c0.6,0.2,1.3,0.2,1.9,0.2c0.8,0,1.5,0,2,0c1.2,0,2.5-0.2,3.6-0.6c1.2-0.4,2.2-1.1,3.1-2c1-1,1.7-2.1,2.2-3.4c0.6-1.6,0.9-3.3,0.8-5
		c0-3.7-0.9-6.5-2.7-8.3C328.7,1435.8,326.1,1434.9,323.4,1435z M349,1455.5c0-3.4,0.5-6.8,1.5-10.1c0.9-3,2.5-5.7,4.5-8.1
		c2-2.3,4.6-4.1,7.4-5.3c6.5-2.5,13.8-2.5,20.3,0c2.8,1.2,5.4,3,7.4,5.3c2,2.4,3.6,5.1,4.5,8.1c1.1,3.3,1.6,6.7,1.5,10.1
		c0,3.4-0.5,6.8-1.5,10.1c-0.9,3-2.5,5.7-4.5,8.1c-2,2.3-4.6,4.1-7.4,5.3c-6.5,2.5-13.8,2.5-20.3,0c-2.8-1.2-5.4-3-7.4-5.3
		c-2.1-2.3-3.6-5.1-4.5-8.1C349.5,1462.3,349,1458.9,349,1455.5z M360.9,1455.5c0,2.8,0.2,5.6,0.7,8.3c0.4,2.3,1.1,4.5,2.2,6.6
		c0.9,1.7,2.2,3.2,3.9,4.3c1.7,1.1,3.6,1.6,5.6,1.6c1.8,0.1,3.6-0.5,5.1-1.6c1.5-1.1,2.7-2.6,3.4-4.3c1-2.1,1.6-4.3,1.9-6.6
		c0.4-2.7,0.6-5.5,0.6-8.3c0-2.8-0.2-5.6-0.7-8.3c-0.4-2.3-1.1-4.5-2.1-6.6c-0.9-1.7-2.2-3.2-3.8-4.3c-1.7-1.1-3.7-1.6-5.7-1.6
		c-1.9-0.1-3.8,0.5-5.4,1.6c-1.5,1.1-2.7,2.6-3.5,4.3c-0.9,2.1-1.5,4.3-1.8,6.6C361.1,1450,360.9,1452.7,360.9,1455.5z
		 M416.7,1475.3c1,0.2,1.9,0.5,2.9,0.9c0.8,0.4,1.7,0.7,2.4,1.1v2.7h-21.6v-2.7c0.9-0.5,1.9-1,2.9-1.3c0.9-0.3,1.9-0.5,2.8-0.7
		v-39.6c-2-0.4-3.9-1.1-5.7-2v-2.7h7.4c0.9,0,2,0,3.2-0.1c1.2,0,2.4-0.1,3.7-0.2c1.3-0.1,2.6-0.1,4-0.2c1.4-0.1,2.7-0.1,3.9-0.1
		c2.4,0,4.8,0.3,7.1,0.9c2,0.5,3.9,1.4,5.6,2.6c1.5,1.2,2.8,2.7,3.6,4.4c0.9,1.9,1.3,4,1.3,6.2c0.1,3-0.7,5.9-2.4,8.3
		c-1.7,2.2-4.1,3.9-6.7,4.9c1.9,2.9,3.9,5.9,5.9,8.9c2.1,3,4.3,6,6.6,8.8l3.4,2.2v2.4h-11.7l-3-2.3c-2.3-2.7-4.2-5.7-5.7-8.9
		c-1.7-3.4-3.1-6.7-4.4-9.9h-5.7V1475.3z M420.2,1435c-1.2,0-2.4,0.1-3.5,0.4v19.5h4.2c2.3,0,4.5-0.9,6.1-2.6
		c1.7-1.7,2.5-4.2,2.5-7.6c0-1.5-0.2-3-0.7-4.4c-0.4-1.2-1.1-2.2-2-3c-0.8-0.8-1.9-1.4-3-1.8C422.7,1435.2,421.4,1435,420.2,1435z
		 M515.3,1487.8c-0.9,0.9-1.8,1.8-2.7,2.6c-0.9,0.8-2,1.5-3,2.2c-1,0.6-2.2,1.2-3.3,1.5c-1.2,0.4-2.4,0.6-3.6,0.6
		c-2.2,0-4.4-0.4-6.5-1.2c-2.2-0.8-4.4-1.7-6.8-2.7s-4.8-2-7.4-2.9c-2.7-1-5.6-1.6-8.4-2l1.8-3.1c2.2-0.4,4.4-0.5,6.6-0.3
		c2.2,0.2,4.3,0.6,6.4,1c2.1,0.5,4.2,1,6.4,1.6c2.1,0.6,4.2,1.1,6.4,1.5c2.2,0.4,4.4,0.6,6.6,0.5c2.4,0,4.7-0.5,6.9-1.2
		L515.3,1487.8z M463.8,1455.5c0-3.4,0.5-6.8,1.5-10.1c0.9-3,2.5-5.7,4.5-8.1c2-2.3,4.6-4.1,7.4-5.3c6.5-2.5,13.8-2.5,20.3,0
		c2.8,1.2,5.4,3,7.4,5.3c2,2.4,3.6,5.1,4.5,8.1c1.1,3.3,1.6,6.7,1.5,10.1c0,3.4-0.5,6.8-1.5,10.1c-0.9,3-2.5,5.7-4.5,8.1
		c-2,2.3-4.6,4.1-7.4,5.3c-6.5,2.5-13.8,2.5-20.3,0c-2.8-1.2-5.4-3-7.4-5.3c-2.1-2.3-3.6-5.1-4.6-8.1
		C464.3,1462.3,463.8,1458.9,463.8,1455.5z M475.7,1455.5c0,2.8,0.2,5.6,0.7,8.3c0.4,2.3,1.1,4.5,2.2,6.6c0.9,1.7,2.2,3.2,3.9,4.3
		c1.7,1.1,3.6,1.6,5.6,1.6c1.8,0.1,3.6-0.5,5.1-1.6c1.5-1.1,2.7-2.6,3.4-4.3c1-2.1,1.6-4.3,1.9-6.6c0.4-2.7,0.6-5.5,0.6-8.3
		c0-2.8-0.2-5.6-0.7-8.3c-0.4-2.3-1.1-4.5-2.1-6.6c-0.9-1.7-2.2-3.2-3.8-4.3c-1.7-1.1-3.7-1.6-5.7-1.6c-1.9-0.1-3.8,0.5-5.4,1.6
		c-1.5,1.1-2.7,2.6-3.5,4.3c-0.9,2.1-1.5,4.3-1.8,6.6C475.9,1450,475.7,1452.7,475.7,1455.5z M514.4,1431h21.6v2.7
		c-1.6,1-3.4,1.7-5.3,2v27c0,1.9,0.2,3.9,0.8,5.7c0.4,1.4,1.2,2.7,2.2,3.7c1,1,2.2,1.7,3.5,2.1c1.5,0.4,3.1,0.7,4.7,0.6
		c1.4,0,2.9-0.2,4.2-0.7c1.3-0.4,2.4-1.2,3.4-2.1c1-1.1,1.8-2.4,2.2-3.8c0.6-1.9,0.8-3.9,0.8-5.9V1436c-1.1-0.2-2.2-0.6-3.3-1
		c-1-0.3-2-0.8-2.8-1.4v-2.7h17.4v2.7c-0.9,0.6-1.8,1.1-2.8,1.5c-1,0.4-2,0.7-3,0.9v26.3c0,6-1.6,10.5-4.7,13.6
		c-3.2,3.1-7.6,4.7-13.3,4.7c-6.3,0-11.1-1.4-14.5-4.2c-3.4-2.8-5.1-7.3-5.1-13.4v-27.3c-1-0.2-2-0.4-2.9-0.7
		c-1-0.3-1.9-0.8-2.8-1.3V1431z M602.1,1431c-0.1,2.1-0.3,4.3-0.5,6.5s-0.5,4.3-0.9,6.3h-2.9l-3.2-8.3h-13.1v17.1h8.5l3.1-5.4h2.2
		c0.2,2.5,0.4,5.1,0.3,7.6c0,2.8-0.1,5.4-0.3,7.8h-2.2l-3.1-5.5h-8.5v18.2h13.6l3.7-8.9h2.9c0.2,0.9,0.4,1.9,0.6,3
		c0.2,1.1,0.3,2.3,0.5,3.5c0.1,1.2,0.2,2.4,0.3,3.6s0.1,2.3,0.1,3.4h-37.9v-2.7c0.9-0.5,1.7-0.8,2.7-1.2c1-0.4,2-0.7,3.1-0.8v-39.6
		c-1-0.2-2-0.5-3-0.8c-1-0.3-1.9-0.7-2.8-1.2v-2.7H602.1z M589.3,1417.1c0.9,0,1.7,0,2.6,0.1c0.9,0.1,1.9,0.3,2.8,0.6
		c0.8,0.2,1.7,0.5,2.5,0.9c0.6,0.2,1.1,0.6,1.5,1v1.4l-17.3,6.7l-2-1.7L589.3,1417.1z"/>
	<path id="Trazado_2347" d="M949.7,1537.1h-2.5c-0.5-1.8-1.1-4.1-1.8-6.9c-0.6-2.7-1.1-5.4-1.4-8.2c2.5-1.5,5.3-2.6,8.2-3.2
		c3.5-0.7,7.1-1,10.6-0.9c2.7-0.1,5.3,0.4,7.9,1.2c2.1,0.7,4,1.9,5.6,3.4c1.5,1.4,2.7,3.2,3.4,5.2c0.8,2.1,1.2,4.3,1.1,6.5
		c0.1,2.7-0.5,5.4-1.6,7.8c-1.1,2.2-2.5,4.2-4.1,6.1c-1.7,1.8-3.4,3.5-5.3,5.1c-1.9,1.5-3.7,3.2-5.4,4.9c-1.6,1.7-3,3.6-4.1,5.7
		c-1.1,2.3-1.7,4.8-1.7,7.3h-2c-0.5-1.9-0.7-3.8-0.7-5.7c0-2.2,0.3-4.3,1.2-6.4c0.7-1.8,1.7-3.5,2.8-5c1.1-1.5,2.4-3,3.7-4.3
		c1.3-1.3,2.5-2.7,3.7-4.2c1.1-1.4,2.1-3,2.8-4.6c0.8-1.8,1.2-3.7,1.2-5.7c0-1.5-0.2-2.9-0.7-4.3c-0.4-1.4-1.1-2.7-2-3.9
		c-0.9-1.2-2.1-2.1-3.5-2.8c-1.6-0.7-3.3-1.1-5.1-1.1c-1.7,0-3.5,0.1-5.2,0.5c-1,0.2-2,0.6-2.8,1.3L949.7,1537.1z M951.3,1583.3
		c-0.1-1.8,0.6-3.5,1.9-4.8c1.3-1.2,3.1-1.9,4.9-1.8c1.8-0.1,3.6,0.6,5,1.8c1.3,1.3,2,3,1.9,4.8c0.1,1.8-0.6,3.5-1.9,4.7
		c-1.4,1.2-3.2,1.9-5,1.8c-1.8,0.1-3.6-0.6-4.9-1.8C951.9,1586.8,951.2,1585.1,951.3,1583.3z"/>
	<g id="Grupo_8" transform="translate(180.491 1374.465)">
		<g id="Grupo_6">
			<g id="Grupo_4">
				<g id="Grupo_2">
					<rect id="Rectángulo_3" x="359.7" y="182" class="st0" width="63.2" height="3.4"/>
					<g id="Grupo_1">
						<path id="Trazado_1" class="st0" d="M393.2,151.1c0,6-1.9,10.9-5.8,14.7c-3.8,3.8-8.8,5.7-14.8,5.7h-17.2l-1.9-2l1.9-1.9h2.4
							v-33.3h-2.4l-2-2l1.9-1.9l17-0.1c11-0.4,20.3,8.2,20.7,19.2C393.3,150,393.3,150.5,393.2,151.1L393.2,151.1z M384.6,151.1
							c0.1-3.9-0.8-7.8-2.7-11.3c-2.2-3.9-5.3-5.9-9.2-5.9h-3.1c-1.4,0-2.5,0.1-3.1,0.1v34h6.3c3.9,0,7-1.9,9.1-5.7
							C383.8,158.8,384.7,155,384.6,151.1L384.6,151.1z"/>
						<path id="Trazado_2" class="st0" d="M429,165.5l-2.4,6h-28.8l-1.9-2l1.9-1.9h2.5V152h-2l-1.6-1.8l1.6-1.7h2v-14.3h-2.4l-2-2
							l1.9-1.9h28.9l2.4,6l-2.7,2.7l-5-5.1h-12.5v14.6h5.9l3-3.1l1.9,2v6l-1.9,1.9l-3.2-3.3h-5.7v15.9h12.6l4.9-5.2L429,165.5z"/>
					</g>
				</g>
				<g id="Grupo_3">
					<path id="Trazado_3" class="st0" d="M216.8,157.1c0,9.9-3.3,17.9-10,24.2c-6.5,6-14.7,9.1-24.6,9.1s-18.1-3-24.6-9.1
						c-6.6-6.3-9.9-14.3-9.9-24.2s3.3-17.9,9.9-24.2c6.5-6.1,14.7-9.1,24.6-9.1c10,0,18.2,3,24.7,9.1
						C213.4,139.1,216.8,147.2,216.8,157.1z M195.8,157c0.1-4.6-0.9-9.2-3-13.4c-2.6-4.8-6.1-7.2-10.7-7.2s-8.1,2.4-10.5,7.1
						c-2.1,4.1-3.1,8.7-3,13.3c-0.1,4.7,0.9,9.3,3,13.5c2.5,4.9,6,7.4,10.6,7.4c4.6,0,8.1-2.4,10.6-7.3
						C194.8,166.2,195.9,161.6,195.8,157z"/>
					<path id="Trazado_4" class="st0" d="M272.6,125.4l-9.8,12.5v31c0,7.1-2.3,12.5-6.8,16.2c-4.1,3.4-9.8,5.1-17.2,5.1
						c-11.1,0-18.8-4.1-23.3-12.3l8.3-14.5l11,6.6c0.1,3.5,0.1,5.3,0.1,5.4c0.3,1.8,1.9,3,3.7,2.8c2,0,3.1-2.2,3.1-6.7v-33.5
						l-9.7-12.5L272.6,125.4L272.6,125.4z"/>
					<path id="Trazado_5" class="st0" d="M342.5,157.1c0,9.9-3.3,17.9-10,24.2c-6.5,6-14.7,9.1-24.6,9.1s-18.1-3-24.6-9.1
						c-6.6-6.3-9.9-14.3-9.9-24.2s3.3-17.9,9.9-24.2c6.5-6.1,14.7-9.1,24.6-9.1c10,0,18.2,3,24.7,9.1
						C339.2,139.1,342.5,147.2,342.5,157.1z M321.5,157c0.1-4.6-0.9-9.2-3-13.4c-2.6-4.8-6.1-7.2-10.7-7.2s-8.1,2.4-10.5,7.1
						c-2.1,4.1-3.1,8.7-3,13.3c-0.1,4.7,0.9,9.3,3,13.5c2.5,4.9,6,7.4,10.6,7.4s8.1-2.4,10.6-7.3C320.6,166.2,321.6,161.6,321.5,157
						z"/>
				</g>
			</g>
			<g id="Grupo_5">
				<path id="Trazado_6" class="st0" d="M502.9,141.4l-19.9-5.6V174l8.4,12.5h-38l8.5-12.5v-38.2l-20.3,5.6l5.1-18.1h50.6
					L502.9,141.4z"/>
				<path id="Trazado_7" class="st0" d="M543.1,123.3l-8.5,12.5v38.3l8.4,12.5h-38l8.5-12.5v-38.3l-8.5-12.5
					C505,123.3,543.1,123.3,543.1,123.3z"/>
				<path id="Trazado_8" class="st0" d="M617.2,155.1l-8.4,12.5V194l-11.6-9.6c-5.2,2.9-11.1,4.3-17,4.2c-9,0.2-17.7-3.3-24-9.7
					c-6.5-6.2-10-14.9-9.8-23.8c0-9.7,3.3-17.7,9.8-24c6.6-6.3,14.7-9.5,24.5-9.5c10.2,0,18.3,3.5,24.4,10.5v7.6h-16.4
					c-1.3-3.3-4.5-5.5-8.1-5.3c-4.6,0-8.1,2.4-10.5,7.2c-1.9,4.2-2.9,8.8-2.8,13.4c-0.1,4.7,1,9.3,3.1,13.4
					c2.6,4.9,6.2,7.3,10.7,7.3c3.4,0,6.1-0.8,8.1-2.4v-3.8c0-1.1-0.4-2.1-1.3-2.7c-0.9-0.6-1.8-1.1-2.8-1.4
					c-1.6-0.6-3.2-1.4-4.7-2.2l6.8-8.1L617.2,155.1L617.2,155.1z"/>
				<path id="Trazado_9" class="st0" d="M685.9,180.2l-7.1,6.3H660L645,153.8v20.2l7.4,12.5h-36.9l8.4-12.5v-38.3l-8.4-12.5h33.9
					c7.2,0,13.1,1.2,17.8,3.6c6.1,3.1,9.1,7.8,9.1,14.3c0,7.7-5.7,13.4-17,16.9l10.3,2.7l6.2,13.3L685.9,180.2z M655.1,141.4
					c0-4.1-3.4-6.2-10.2-6.1v15.8c2.4-0.9,4.6-2,6.8-3.3C653.9,146.4,655.2,144,655.1,141.4z"/>
				<path id="Trazado_10" class="st0" d="M748.3,186.5h-61l8.5-12.5v-13.3l-7.6-5.9l7.6-5.9v-13l-8.5-12.5h58.4l-8.4,20.6l-9.1-8.1
					h-11.5v13h5.2l6.9-6.1l13.5,12.2l-13.7,13.2l-6.8-7.5h-5.1V174h13.9l9-8L748.3,186.5z"/>
			</g>
		</g>
		<g id="Grupo_7">
			<path id="Trazado_11" class="st0" d="M454.3,222.2v-17.9l-1,5.4l-2.6,12.5h-3.5l-2.5-12.5l-1-5.4v17.9h-4.1v-24.7h6.2l2.6,12.5
				l0.8,4.6l0.8-4.6l2.5-12.5h6.2v24.7H454.3z"/>
			<path id="Trazado_12" class="st0" d="M466.4,222.2v-24.7h11.8v4H471v6.1h5v3.6h-5v6.9h7.2v4.1L466.4,222.2z"/>
			<path id="Trazado_13" class="st0" d="M489.8,218.1h7.6v4.1h-13.2v-1.4l8-19.3h-7.5v-4h13v1.4L489.8,218.1z"/>
			<path id="Trazado_14" class="st0" d="M511.3,222.7c-4.4,0-7.1-3-7.1-6.8v-12.2c0-3.8,2.7-6.8,7.1-6.8c4.4,0,6.7,2.7,6.7,6.4v3
				h-4.1v-3c0-1.4-1.1-2.5-2.5-2.5c-1.4,0-2.5,1.1-2.5,2.5v13c0,1.4,1.2,2.5,2.5,2.5c1.4,0,2.5-1.2,2.5-2.5v-3h4.1v3
				C518,220,515.7,222.7,511.3,222.7z"/>
			<path id="Trazado_15" class="st0" d="M533.9,222.2l-0.8-4.9h-4.4l-0.9,4.9h-4.3l5-24.7h5.2l4.9,24.7H533.9z M531,204.2l-1.7,9.5
				h3.2L531,204.2z"/>
			<path id="Trazado_16" class="st0" d="M544.9,222.2v-24.7h4.6v20.6h6.9v4.1H544.9z"/>
			<path id="Trazado_17" class="st0" d="M582.2,222.2l-0.8-4.9H577l-0.9,4.9h-4.3l5-24.7h5.2l4.9,24.7H582.2z M579.3,204.2l-1.7,9.5
				h3.2L579.3,204.2z"/>
			<path id="Trazado_18" class="st0" d="M604.6,222.3c-1.8,0-2.5-1.5-2.5-3.6v-4.6c0.1-1-0.6-2-1.6-2.1c-0.1,0-0.2,0-0.3,0h-2.4
				v10.2h-4.6v-24.7h7.6c3.4,0,5.6,1.9,5.6,5.4v3.5c0.1,1.8-1,3.4-2.8,3.8c1.7,0.4,2.9,2,2.9,3.7v4.5c-0.1,0.9,0.3,1.8,0.9,2.5v1.4
				L604.6,222.3z M601.9,203.1c0-1.1-0.5-1.8-1.6-1.8h-2.5v7.3h2.3c1.2,0,1.8-0.6,1.8-2L601.9,203.1z"/>
			<path id="Trazado_19" class="st0" d="M622,201.6v20.6h-4.6v-20.6h-4.6v-4.1h13.7v4.1H622z"/>
			<path id="Trazado_20" class="st0" d="M633.1,222.2v-24.7h11.8v4h-7.2v6.1h5v3.6h-5v6.9h7.2v4.1L633.1,222.2z"/>
			<path id="Trazado_21" class="st0" d="M658,222.7c-4.2,0-6.9-2.5-6.9-6.4v-1.7h4.2v1.4c0,1.8,0.9,2.8,2.5,2.8
				c1.2,0.1,2.3-0.8,2.4-2c0-0.2,0-0.3,0-0.5c0-2-1.3-3.3-3.7-5.1c-2.5-1.8-5.3-4.3-5.3-7.7c-0.2-3.5,2.5-6.5,6-6.6
				c0.3,0,0.5,0,0.8,0c3.4-0.2,6.3,2.4,6.5,5.8c0,0.2,0,0.4,0,0.6v1.6h-4.2v-1.5c0-1.5-0.8-2.6-2.3-2.6c-1.1-0.1-2.1,0.8-2.2,1.9
				c0,0.1,0,0.2,0,0.3c0,2.1,1.2,3.1,4,5.2c2.9,2.2,5,4.4,5,7.7c0.2,3.6-2.6,6.6-6.2,6.8C658.4,222.8,658.2,222.8,658,222.7z"/>
			<path id="Trazado_22" class="st0" d="M680.6,222.2l-0.8-4.9h-4.4l-0.9,4.9h-4.3l5-24.7h5.2l4.9,24.7H680.6z M677.7,204.2
				l-1.7,9.5h3.2L677.7,204.2z"/>
			<path id="Trazado_23" class="st0" d="M702.4,222.2l-4.8-10.5l-1.7-3.9v14.5h-4.2v-24.7h4l4.6,10.7l1.6,3.9v-14.6h4.2v24.7H702.4z
				"/>
			<path id="Trazado_24" class="st0" d="M722.6,222.2l-0.8-4.9h-4.4l-0.9,4.9h-4.3l5-24.7h5.2l4.9,24.7H722.6z M719.7,204.2
				l-1.7,9.5h3.2L719.7,204.2z"/>
			<path id="Trazado_25" class="st0" d="M733.6,222.2v-24.7h4.6v20.6h6.9v4.1H733.6z"/>
		</g>
	</g>
</g>
</svg>
