<?xml version="1.0" encoding="utf-8"?>
<!-- Generator: Adobe Illustrator 22.0.1, SVG Export Plug-In . SVG Version: 6.00 Build 0)  -->
<svg version="1.1" id="Capa_1" xmlns="http://www.w3.org/2000/svg" xmlns:xlink="http://www.w3.org/1999/xlink" x="0px" y="0px"
	 viewBox="0 0 720.6 134.6" style="enable-background:new 0 0 720.6 134.6;" xml:space="preserve">
<g>
	<g>
		<g>
			<g>
				<rect x="257" y="77.4" width="73.1" height="4"/>
				<g>
					<path d="M295.8,41.7c0,6.9-2.2,12.6-6.7,17c-4.5,4.4-10.1,6.6-17.1,6.6h-19.9l-2.2-2.3l2.2-2.2h2.8V22.3h-2.7l-2.3-2.3l2.2-2.2
						l19.7-0.1c7,0,12.7,2.2,17.2,6.7C293.6,29,295.8,34.7,295.8,41.7z M285.9,41.8c0-5-1-9.3-3.1-13.1c-2.5-4.5-6.1-6.8-10.7-6.8
						c-0.9,0-2.1,0-3.6,0c-1.7,0-2.8,0.1-3.5,0.1v39.3h7.3c4.5,0,8.1-2.2,10.5-6.6C284.8,51,285.9,46.7,285.9,41.8z"/>
					<path d="M337.2,58.4l-2.8,6.9H301l-2.2-2.3l2.2-2.2h2.9v-18h-2.3l-1.9-2.1l1.9-1.9h2.3V22.3h-2.8l-2.3-2.3l2.2-2.2h33.4
						l2.7,6.9l-3.1,3.1l-5.8-6h-14.4v16.9h6.8l3.5-3.6l2.2,2.3v6.9l-2.2,2.2l-3.7-3.9h-6.5v18.4h14.6l5.6-6L337.2,58.4z"/>
				</g>
			</g>
			<g>
				<path d="M91.7,48.6c0,11.4-3.9,20.8-11.6,28c-7.5,7-17,10.5-28.5,10.5c-11.5,0-21-3.5-28.5-10.5c-7.7-7.3-11.5-16.6-11.5-28
					c0-11.4,3.8-20.8,11.5-28c7.5-7.1,17-10.6,28.5-10.6c11.6,0,21.1,3.5,28.6,10.6C87.9,27.9,91.7,37.2,91.7,48.6z M67.4,48.5
					c0-5.8-1.1-11-3.4-15.5c-3-5.6-7.1-8.4-12.4-8.4c-5.3,0-9.4,2.8-12.2,8.3c-2.4,4.4-3.5,9.6-3.5,15.4c0,5.9,1.2,11.1,3.5,15.6
					c2.9,5.7,7,8.6,12.3,8.6S61.1,69.7,64,64C66.3,59.5,67.4,54.4,67.4,48.5z"/>
				<path d="M156.3,12l-11.4,14.5v35.9c0,8.3-2.6,14.5-7.9,18.7c-4.8,3.9-11.4,5.8-19.8,5.8c-12.8,0-21.8-4.7-26.9-14.2l9.6-16.8
					l12.7,7.6c0.1,4,0.1,6.1,0.1,6.2c0.5,2.1,1.9,3.2,4.2,3.2c2.4,0,3.5-2.6,3.5-7.8V26.5L109.3,12h9.7h27.7H156.3z"/>
				<path d="M237.1,48.6c0,11.4-3.9,20.8-11.6,28c-7.5,7-17,10.5-28.5,10.5c-11.5,0-21-3.5-28.5-10.5c-7.7-7.3-11.5-16.6-11.5-28
					c0-11.4,3.8-20.8,11.5-28C176,13.6,185.5,10,197,10c11.6,0,21.1,3.5,28.6,10.6C233.3,27.9,237.1,37.2,237.1,48.6z M212.8,48.5
					c0-5.8-1.1-11-3.4-15.5c-3-5.6-7.1-8.4-12.4-8.4c-5.3,0-9.4,2.8-12.2,8.3c-2.4,4.4-3.5,9.6-3.5,15.4c0,5.9,1.2,11.1,3.5,15.6
					c2.9,5.7,7,8.6,12.3,8.6c5.3,0,9.4-2.8,12.3-8.5C211.7,59.5,212.8,54.4,212.8,48.5z"/>
			</g>
		</g>
		<g>
			<path d="M424.7,31.9l-23.1-6.5v44.2l9.8,14.5h-8.1h-27.7h-8.2l9.9-14.5V25.4l-23.5,6.5l5.8-20.9h58.5L424.7,31.9z"/>
			<path d="M471.2,11l-9.9,14.4v44.3l9.8,14.4h-8h-27.7h-8.3l9.9-14.4V25.4L427.2,11h8.2H463H471.2z"/>
			<path d="M557,47.8l-9.8,14.4v30.6l-13.4-11.1c-5.7,3.2-12.3,4.8-19.6,4.8c-10.9,0-20.2-3.7-27.8-11.2
				c-7.6-7.5-11.4-16.7-11.4-27.6c0-11.2,3.8-20.5,11.4-27.8c7.6-7.3,17-10.9,28.3-10.9c11.8,0,21.2,4.1,28.2,12.2v8.8h-18.9
				c-1.9-4.1-5-6.1-9.4-6.1c-5.3,0-9.3,2.8-12.1,8.4c-2.1,4.4-3.2,9.5-3.2,15.5c0,5.8,1.2,10.9,3.6,15.5c3,5.6,7.1,8.5,12.4,8.5
				c4,0,7.1-0.9,9.4-2.8v-4.4c0-1.3-0.5-2.4-1.5-3.1c-0.5-0.4-1.6-0.9-3.3-1.6c-1.7-0.7-3.5-1.5-5.5-2.5l7.9-9.4h26.9H557z"/>
			<path d="M636.4,76.9l-8.2,7.3h-21.8L589,46.3v23.4l8.6,14.4h-7.1H563h-8.2l9.8-14.4V25.4L554.9,11h8.1H594
				c8.3,0,15.2,1.4,20.6,4.1c7.1,3.6,10.6,9.1,10.6,16.5c0,8.9-6.6,15.4-19.6,19.5l11.9,3.1l7.2,15.4L636.4,76.9z M600.8,31.9
				c0-4.8-3.9-7.1-11.8-7.1v18.3c4.2-1.8,6.8-3.1,7.9-3.8C599.5,37.5,600.8,35,600.8,31.9z"/>
			<path d="M708.6,84.1h-62.5h-8.1l9.9-14.5V54.2l-8.8-6.9l8.8-6.8v-15L638.1,11h8.1h59.5L696,34.9l-10.5-9.4h-13.3v15h6l8-7.1
				l15.7,14.1L686,62.9l-7.9-8.7h-5.9v15.4h16.1l10.4-9.3L708.6,84.1z"/>
		</g>
	</g>
	<g>
		<g>
			<path d="M371.6,124.9v-20.8l-1.2,6.2l-3.1,14.5h-4l-2.9-14.5l-1.1-6.2v20.8h-4.8V96.3h7.2l3,14.5l0.9,5.3l0.9-5.3l2.9-14.5h7.1
				v28.6H371.6z"/>
			<path d="M385.6,124.9V96.3h13.7v4.6H391v7.1h5.8v4.2H391v8h8.3v4.8H385.6z"/>
			<path d="M412.8,120.2h8.8v4.7h-15.3v-1.7l9.3-22.4h-8.7v-4.6H422V98L412.8,120.2z"/>
			<path d="M437.7,125.6c-5.1,0-8.3-3.4-8.3-7.9v-14.2c0-4.4,3.1-7.9,8.3-7.9c5.1,0,7.7,3.2,7.7,7.5v3.5h-4.8v-3.4
				c0-1.7-0.9-2.8-2.9-2.8c-1.9,0-2.9,1.2-2.9,2.8v15c0,1.6,1,2.8,2.9,2.8c1.9,0,2.9-1.2,2.9-2.8v-3.4h4.8v3.5
				C445.5,122.4,442.8,125.6,437.7,125.6z"/>
			<path d="M463.9,124.9l-0.9-5.6h-5.1l-1,5.6h-5l5.8-28.6h6l5.7,28.6H463.9z M460.6,104l-1.9,11.1h3.7L460.6,104z"/>
			<path d="M476.7,124.9V96.3h5.3v23.9h8v4.7H476.7z"/>
			<path d="M519.9,124.9l-0.9-5.6h-5.1l-1,5.6h-5l5.8-28.6h6l5.7,28.6H519.9z M516.6,104l-1.9,11.1h3.7L516.6,104z"/>
			<path d="M546,125.1c-2.1,0-2.9-1.7-2.9-4.2v-5.4c0-1.3-0.7-2.5-2.2-2.5H538v11.9h-5.3V96.3h8.8c3.9,0,6.5,2.2,6.5,6.2v4
				c0,2.1-1,3.7-3.2,4.4c2.2,0.6,3.3,2.5,3.3,4.3v5.2c0,1.3,0.4,2.2,1,2.9v1.6H546z M542.9,102.8c0-1.3-0.6-2.1-1.9-2.1H538v8.4h2.7
				c1.4,0,2.1-0.7,2.1-2.3V102.8z"/>
			<path d="M566.2,101v23.9h-5.4V101h-5.3v-4.7h15.9v4.7H566.2z"/>
			<path d="M579,124.9V96.3h13.7v4.6h-8.3v7.1h5.8v4.2h-5.8v8h8.3v4.8H579z"/>
			<path d="M608,125.6c-4.9,0-8-2.9-8-7.4v-2h4.9v1.7c0,2.1,1,3.3,2.9,3.3c1.9,0,2.8-1.1,2.8-2.9c0-2.3-1.5-3.8-4.3-5.9
				c-2.9-2.1-6.1-4.9-6.1-8.9c0-4.1,2.7-7.7,7.8-7.7c4.5,0,7.5,3.1,7.5,7.4v1.8h-4.9v-1.7c0-1.8-0.9-3.1-2.7-3.1
				c-1.5,0-2.6,1-2.6,2.6c0,2.4,1.4,3.7,4.6,6c3.4,2.5,5.8,5.1,5.8,9C615.9,122.3,612.7,125.6,608,125.6z"/>
			<path d="M634.2,124.9l-0.9-5.6h-5.1l-1,5.6h-5l5.8-28.6h6l5.7,28.6H634.2z M630.8,104l-1.9,11.1h3.7L630.8,104z"/>
			<path d="M659.4,124.9l-5.5-12.2l-2-4.6v16.8h-4.9V96.3h4.6l5.3,12.4l1.9,4.6v-17h4.8v28.6H659.4z"/>
			<path d="M682.9,124.9l-0.9-5.6h-5.1l-1,5.6h-5l5.8-28.6h6l5.7,28.6H682.9z M679.5,104l-1.9,11.1h3.7L679.5,104z"/>
			<path d="M695.6,124.9V96.3h5.3v23.9h8v4.7H695.6z"/>
		</g>
	</g>
</g>
</svg>
